<svg width="29" height="29" viewBox="0 0 29 29" fill="none" xmlns="http://www.w3.org/2000/svg">
<g filter="url(#filter0_dd_1108_36941)">
<rect x="5.75684" y="6.60669" width="16.2433" height="16.2433" rx="2.70721" transform="rotate(-3 5.75684 6.60669)" fill="url(#paint0_linear_1108_36941)"/>
<g clip-path="url(#clip0_1108_36941)">
<path fill-rule="evenodd" clip-rule="evenodd" d="M11.2262 9.15341C10.6746 9.18232 10.251 9.65285 10.2799 10.2044L10.6986 18.1934C10.7275 18.7449 11.198 19.1686 11.7495 19.1397L16.7427 18.878C17.2942 18.8491 17.7179 18.3786 17.689 17.8271L17.2703 9.83803C17.2414 9.2865 16.7708 8.86283 16.2193 8.89173L11.2262 9.15341ZM16.2717 9.89036L11.2785 10.152L11.6187 16.6431L16.6118 16.3815L16.2717 9.89036ZM15.1662 17.4586L13.169 17.5633L13.1951 18.0626L15.1924 17.9579L15.1662 17.4586Z" fill="white"/>
</g>
</g>
<defs>
<filter id="filter0_dd_1108_36941" x="0.342407" y="0.342163" width="27.9001" height="27.9" filterUnits="userSpaceOnUse" color-interpolation-filters="sRGB">
<feFlood flood-opacity="0" result="BackgroundImageFix"/>
<feColorMatrix in="SourceAlpha" type="matrix" values="0 0 0 0 0 0 0 0 0 0 0 0 0 0 0 0 0 0 127 0" result="hardAlpha"/>
<feOffset/>
<feGaussianBlur stdDeviation="2.70721"/>
<feColorMatrix type="matrix" values="0 0 0 0 0.0352941 0 0 0 0 0.117647 0 0 0 0 0.258824 0 0 0 0.16 0"/>
<feBlend mode="normal" in2="BackgroundImageFix" result="effect1_dropShadow_1108_36941"/>
<feColorMatrix in="SourceAlpha" type="matrix" values="0 0 0 0 0 0 0 0 0 0 0 0 0 0 0 0 0 0 127 0" result="hardAlpha"/>
<feOffset/>
<feGaussianBlur stdDeviation="0.338402"/>
<feColorMatrix type="matrix" values="0 0 0 0 0.0352941 0 0 0 0 0.117647 0 0 0 0 0.258824 0 0 0 0.12 0"/>
<feBlend mode="normal" in2="effect1_dropShadow_1108_36941" result="effect2_dropShadow_1108_36941"/>
<feBlend mode="normal" in="SourceGraphic" in2="effect2_dropShadow_1108_36941" result="shape"/>
</filter>
<linearGradient id="paint0_linear_1108_36941" x1="5.75684" y1="6.60669" x2="21.5128" y2="22.4439" gradientUnits="userSpaceOnUse">
<stop stop-color="#0C66E4"/>
<stop offset="1" stop-color="#37B4C3"/>
</linearGradient>
<clipPath id="clip0_1108_36941">
<rect width="12" height="12" fill="white" transform="translate(7.67871 8.33795) rotate(-3)"/>
</clipPath>
</defs>
</svg>
