<svg width="29" height="29" viewBox="0 0 29 29" fill="none" xmlns="http://www.w3.org/2000/svg">
<g filter="url(#filter0_dd_3535_109754)">
<path d="M6.98615 8.02511C7.06715 6.90667 8.03979 6.06124 9.15861 6.13677L21.3107 6.95723C22.4296 7.03277 23.2709 8.00067 23.1899 9.11911L22.3501 20.7139C22.2691 21.8323 21.2965 22.6777 20.1777 22.6022L8.02554 21.7817C6.90672 21.7062 6.0654 20.7383 6.1464 19.6199L6.98615 8.02511Z" fill="url(#paint0_linear_3535_109754)"/>
<path d="M18.9787 13.7221L16.9033 13.5769L16.2915 14.0048L16.129 16.3276C16.0687 17.19 16.7186 17.9382 17.581 17.9985C18.4439 18.0588 19.1916 17.4084 19.2519 16.546L19.4143 14.2232C19.4324 13.9648 19.2376 13.7402 18.9787 13.7221Z" fill="#5059C9"/>
<path d="M19.566 12.2588C19.5275 12.8095 19.0498 13.2252 18.4987 13.1866C17.9475 13.1481 17.5324 12.67 17.5709 12.1193C17.6094 11.5686 18.087 11.153 18.6382 11.1915C19.1893 11.23 19.6045 11.7082 19.566 12.2588Z" fill="#5059C9"/>
<path d="M13.4206 13.3351L17.0138 13.5864C17.2612 13.6037 17.4477 13.8182 17.4304 14.0656L17.2318 16.9047C17.1469 18.1197 16.0934 19.0355 14.8784 18.9505L14.7886 18.9442C13.5736 18.8593 12.6578 17.8058 12.7428 16.5908L12.9413 13.7517C12.9586 13.5043 13.1732 13.3178 13.4206 13.3351Z" fill="#7B83EB"/>
<path d="M17.0597 11.5824C17.0038 12.3829 16.3094 12.9869 15.5084 12.9309C14.7079 12.875 14.1043 12.1802 14.1603 11.3796C14.2163 10.5791 14.9106 9.97503 15.7112 10.031C16.5122 10.087 17.1157 10.7818 17.0597 11.5824Z" fill="#7B83EB"/>
<path opacity="0.5" fill-rule="evenodd" clip-rule="evenodd" d="M16.0162 12.8534L16.0399 12.5137C16.0591 12.2394 15.8394 11.9984 15.5516 11.9783L14.2149 11.8848C14.3847 12.4451 14.8817 12.8713 15.5007 12.9145C15.6802 12.9271 15.8534 12.9021 16.0162 12.8534ZM12.942 13.7517C12.9593 13.5043 13.1739 13.3178 13.4213 13.3351L15.969 13.5133L15.6958 17.4212C15.6766 17.6955 15.347 17.9787 15.0293 17.9565L13.0192 17.816C12.8174 17.4545 12.7125 17.0342 12.7435 16.5908L12.942 13.7517Z" fill="black"/>
<path d="M9.70524 17.0827C9.43091 17.0635 9.22216 16.8234 9.24134 16.549L9.59012 11.5612C9.6093 11.2869 9.84945 11.0781 10.1238 11.0973L15.1116 11.4461C15.3859 11.4653 15.5947 11.7054 15.5755 11.9798L15.2267 16.9676C15.2075 17.2419 14.9674 17.4507 14.6931 17.4315L9.70524 17.0827Z" fill="#4B53BC"/>
<path d="M13.974 13.3715L12.8942 13.296L12.6912 16.1989L11.9814 16.1493L12.1844 13.2463L11.0986 13.1704L11.1484 12.4572L14.0239 12.6582L13.974 13.3715Z" fill="white"/>
</g>
<defs>
<filter id="filter0_dd_3535_109754" x="0.585571" y="0.585571" width="28.1648" height="27.5678" filterUnits="userSpaceOnUse" color-interpolation-filters="sRGB">
<feFlood flood-opacity="0" result="BackgroundImageFix"/>
<feColorMatrix in="SourceAlpha" type="matrix" values="0 0 0 0 0 0 0 0 0 0 0 0 0 0 0 0 0 0 127 0" result="hardAlpha"/>
<feOffset/>
<feGaussianBlur stdDeviation="2.70721"/>
<feColorMatrix type="matrix" values="0 0 0 0 0.0352941 0 0 0 0 0.117647 0 0 0 0 0.258824 0 0 0 0.16 0"/>
<feBlend mode="normal" in2="BackgroundImageFix" result="effect1_dropShadow_3535_109754"/>
<feColorMatrix in="SourceAlpha" type="matrix" values="0 0 0 0 0 0 0 0 0 0 0 0 0 0 0 0 0 0 127 0" result="hardAlpha"/>
<feOffset/>
<feGaussianBlur stdDeviation="0.338402"/>
<feColorMatrix type="matrix" values="0 0 0 0 0.0352941 0 0 0 0 0.117647 0 0 0 0 0.258824 0 0 0 0.12 0"/>
<feBlend mode="normal" in2="effect1_dropShadow_3535_109754" result="effect2_dropShadow_3535_109754"/>
<feBlend mode="normal" in="SourceGraphic" in2="effect2_dropShadow_3535_109754" result="shape"/>
</filter>
<linearGradient id="paint0_linear_3535_109754" x1="15.2347" y1="6.547" x2="14.178" y2="22.1971" gradientUnits="userSpaceOnUse">
<stop stop-color="white"/>
<stop offset="1" stop-color="#DFE1E6"/>
</linearGradient>
</defs>
</svg>
