<svg width="30" height="30" viewBox="0 0 30 30" fill="none" xmlns="http://www.w3.org/2000/svg">
<g filter="url(#filter0_dd_1108_36939)">
<rect x="6" y="8.54102" width="16.2433" height="16.2433" rx="2.70721" transform="rotate(-9 6 8.54102)" fill="url(#paint0_linear_1108_36939)"/>
<path fill-rule="evenodd" clip-rule="evenodd" d="M11.8912 18.0661L11.2523 14.0319L13.9729 16.0081C14.6693 16.5149 15.6446 16.3604 16.1508 15.6632L18.1599 12.8978L18.805 16.971L11.8912 18.0661ZM17.4916 12.1168L15.342 15.0755C15.1604 15.3254 14.8107 15.3808 14.5603 15.1993L11.6021 13.0496L17.4916 12.1168ZM17.8664 11.0449L10.9525 12.14C10.4093 12.226 10.0352 12.7408 10.1213 13.2841L10.9035 18.2225C10.9895 18.7657 11.5043 19.1398 12.0476 19.0538L18.9614 17.9587C19.5046 17.8727 19.8787 17.3578 19.7926 16.8146L19.0105 11.8762C18.9244 11.3329 18.4096 10.9589 17.8664 11.0449V11.0449Z" fill="white"/>
</g>
<defs>
<filter id="filter0_dd_1108_36939" x="0.585571" y="0.585571" width="29.4128" height="29.4132" filterUnits="userSpaceOnUse" color-interpolation-filters="sRGB">
<feFlood flood-opacity="0" result="BackgroundImageFix"/>
<feColorMatrix in="SourceAlpha" type="matrix" values="0 0 0 0 0 0 0 0 0 0 0 0 0 0 0 0 0 0 127 0" result="hardAlpha"/>
<feOffset/>
<feGaussianBlur stdDeviation="2.70721"/>
<feColorMatrix type="matrix" values="0 0 0 0 0.0352941 0 0 0 0 0.117647 0 0 0 0 0.258824 0 0 0 0.16 0"/>
<feBlend mode="normal" in2="BackgroundImageFix" result="effect1_dropShadow_1108_36939"/>
<feColorMatrix in="SourceAlpha" type="matrix" values="0 0 0 0 0 0 0 0 0 0 0 0 0 0 0 0 0 0 127 0" result="hardAlpha"/>
<feOffset/>
<feGaussianBlur stdDeviation="0.338402"/>
<feColorMatrix type="matrix" values="0 0 0 0 0.0352941 0 0 0 0 0.117647 0 0 0 0 0.258824 0 0 0 0.12 0"/>
<feBlend mode="normal" in2="effect1_dropShadow_1108_36939" result="effect2_dropShadow_1108_36939"/>
<feBlend mode="normal" in="SourceGraphic" in2="effect2_dropShadow_1108_36939" result="shape"/>
</filter>
<linearGradient id="paint0_linear_1108_36939" x1="6" y1="8.54102" x2="22.2433" y2="24.7843" gradientUnits="userSpaceOnUse">
<stop stop-color="#6E5DC6"/>
<stop offset="1" stop-color="#E774BB"/>
</linearGradient>
</defs>
</svg>
