<svg width="16" height="16" viewBox="0 0 16 16" fill="none" xmlns="http://www.w3.org/2000/svg">
<path d="M10.6668 7.33333V6H9.3335V4.668C9.33358 4.49282 9.29917 4.31933 9.23221 4.15745C9.16525 3.99557 9.06706 3.84846 8.94325 3.72452C8.81944 3.60059 8.67243 3.50225 8.51061 3.43513C8.3488 3.36801 8.17535 3.33342 8.00016 3.33333C7.2655 3.33333 6.66683 3.932 6.66683 4.668V6H5.3335V7.33333H4.66683V12.6667H11.3335V7.33333H10.6668ZM9.3335 7.33333H6.66683V6H9.3335V7.33333ZM5.3335 6V4.668C5.33385 3.96074 5.61487 3.28253 6.11485 2.7823C6.61484 2.28207 7.2929 2.00071 8.00016 2C8.35047 2 8.69734 2.06902 9.02096 2.20312C9.34458 2.33721 9.63861 2.53376 9.88625 2.78152C10.1339 3.02928 10.3303 3.32341 10.4642 3.6471C10.5982 3.97079 10.667 4.3177 10.6668 4.668V6H11.3295C11.6843 6.00071 12.0244 6.1421 12.2751 6.39318C12.5258 6.64426 12.6667 6.98452 12.6668 7.33933V12.6607C12.6668 13.4007 12.0688 14 11.3295 14H4.67083C4.31596 13.9995 3.97581 13.8581 3.72507 13.607C3.47433 13.3559 3.3335 13.0155 3.3335 12.6607V7.34C3.3335 6.59933 3.9315 6 4.67083 6H5.3335ZM5.3335 6H6.66683V7.33333H5.3335V6ZM9.3335 6H10.6668V7.33333H9.3335V6Z" fill="#44546F"/>
<path d="M8.00016 11.3333C8.73654 11.3333 9.3335 10.7364 9.3335 10C9.3335 9.26362 8.73654 8.66667 8.00016 8.66667C7.26378 8.66667 6.66683 9.26362 6.66683 10C6.66683 10.7364 7.26378 11.3333 8.00016 11.3333Z" fill="#44546F"/>
</svg>
