<svg width="29" height="29" viewBox="0 0 29 29" fill="none" xmlns="http://www.w3.org/2000/svg">
<g filter="url(#filter0_dd_1108_36937)">
<rect width="16.2406" height="15.6859" rx="2.03041" transform="matrix(0.997729 0.0673622 -0.072235 0.997388 7 6)" fill="url(#paint0_linear_1108_36937)"/>
<path d="M11.6856 15.7091C11.646 16.2555 11.1671 16.6717 10.6205 16.6348C10.074 16.5979 9.65975 16.1214 9.69932 15.575C9.7389 15.0286 10.2178 14.6124 10.7643 14.6493L11.7575 14.7163L11.6856 15.7091ZM12.186 15.7429C12.2255 15.1965 12.7044 14.7803 13.251 14.8172C13.7976 14.8541 14.2118 15.3306 14.1722 15.877L13.9922 18.3627C13.9526 18.9092 13.4737 19.3254 12.9272 19.2885C12.3806 19.2516 11.9664 18.7751 12.0059 18.2286L12.186 15.7429Z" fill="#E01E5A"/>
<path d="M13.4678 11.8236C12.9212 11.7867 12.507 11.3101 12.5466 10.7637C12.5862 10.2174 13.065 9.80112 13.6116 9.83803C14.1582 9.87493 14.5724 10.3515 14.5328 10.8979L14.4609 11.8906L13.4678 11.8236ZM13.4315 12.3238C13.9781 12.3607 14.3923 12.8372 14.3527 13.3836C14.3132 13.93 13.8343 14.3463 13.2877 14.3094L10.8012 14.1415C10.2545 14.1046 9.84033 13.6281 9.8799 13.0817C9.91948 12.5353 10.3983 12.119 10.9449 12.1559L13.4315 12.3238Z" fill="#36C5F0"/>
<path d="M17.3475 13.5858C17.387 13.0394 17.8658 12.6232 18.4124 12.6601C18.9591 12.697 19.3732 13.1735 19.3336 13.7199C19.2941 14.2663 18.8153 14.6826 18.2686 14.6457L17.2756 14.5786L17.3475 13.5858ZM16.847 13.552C16.8074 14.0984 16.3286 14.5146 15.782 14.4777C15.2354 14.4408 14.8212 13.9643 14.8608 13.4179L15.0408 10.9322C15.0804 10.3858 15.5592 9.96952 16.1058 10.0064C16.6524 10.0433 17.0666 10.5199 17.027 11.0662L16.847 13.552Z" fill="#2EB67D"/>
<path d="M15.5652 17.4714C16.1117 17.5083 16.5259 17.9848 16.4864 18.5312C16.4468 19.0776 15.9679 19.4938 15.4214 19.4569C14.8748 19.42 14.4606 18.9435 14.5001 18.3971L14.572 17.4044L15.5652 17.4714ZM15.6014 16.9711C15.0548 16.9342 14.6406 16.4577 14.6802 15.9113C14.7197 15.3649 15.1986 14.9487 15.7452 14.9856L18.2318 15.1535C18.7784 15.1904 19.1926 15.6669 19.153 16.2133C19.1134 16.7597 18.6346 17.1759 18.088 17.139L15.6014 16.9711Z" fill="#ECB22E"/>
</g>
<defs>
<filter id="filter0_dd_1108_36937" x="0.452758" y="0.585571" width="28.1658" height="27.5678" filterUnits="userSpaceOnUse" color-interpolation-filters="sRGB">
<feFlood flood-opacity="0" result="BackgroundImageFix"/>
<feColorMatrix in="SourceAlpha" type="matrix" values="0 0 0 0 0 0 0 0 0 0 0 0 0 0 0 0 0 0 127 0" result="hardAlpha"/>
<feOffset/>
<feGaussianBlur stdDeviation="2.70721"/>
<feColorMatrix type="matrix" values="0 0 0 0 0.0352941 0 0 0 0 0.117647 0 0 0 0 0.258824 0 0 0 0.16 0"/>
<feBlend mode="normal" in2="BackgroundImageFix" result="effect1_dropShadow_1108_36937"/>
<feColorMatrix in="SourceAlpha" type="matrix" values="0 0 0 0 0 0 0 0 0 0 0 0 0 0 0 0 0 0 127 0" result="hardAlpha"/>
<feOffset/>
<feGaussianBlur stdDeviation="0.338402"/>
<feColorMatrix type="matrix" values="0 0 0 0 0.0352941 0 0 0 0 0.117647 0 0 0 0 0.258824 0 0 0 0.12 0"/>
<feBlend mode="normal" in2="effect1_dropShadow_1108_36937" result="effect2_dropShadow_1108_36937"/>
<feBlend mode="normal" in="SourceGraphic" in2="effect2_dropShadow_1108_36937" result="shape"/>
</filter>
<linearGradient id="paint0_linear_1108_36937" x1="8.12031" y1="0" x2="8.12031" y2="15.6859" gradientUnits="userSpaceOnUse">
<stop stop-color="white"/>
<stop offset="1" stop-color="#DFE1E6"/>
</linearGradient>
</defs>
</svg>
